# xmcd CD database file
#
# Track frame offsets:
#	150
#	12994
#	23354
#	35689
#	48748
#	59076
#	70274
#	82044
#	93097
#	105337
#	118285
#	130044
#	142222
#	154498
#	164215
#	174238
#	186804
#	197222
#	209304
#	220457
#	234347
#	244895
#	256473
#	270441
#	284639
#	294217
#	306309
#	319762
#	332085
#	346093
#
# Disc length: 4798 seconds
#
# Revision: 0
# Processed by: cddbd v1.5.2PL0 Copyright (c) Steve Scherf et al.
# Submitted via: CDex 1.51
#
DISCID=cf12bc1e
DTITLE=George Jones - Ultimate 1 (1955-1975)
DYEAR=1900
DGENRE=Country
TTITLE0=1955-What Am I Worth
TTITLE1=1955-Why, Baby, Why
TTITLE2=1956-Just One More
TTITLE3=1957-Color of the Blues
TTITLE4=1957-Don't Stop the Music
TTITLE5=1957-Tall Tall Trees
TTITLE6=1960-The Window Up Above
TTITLE7=1961-Tender Years
TTITLE8=1962-A Girl I Used to Know
TTITLE9=1962-Aching, Breaking Heart
TTITLE10=1962-She Thinks I Still Care
TTITLE11=1963-We Must Have Been Out of Our Minds (With Melba Montgomery)
TTITLE12=1963-You Comb Her Hair
TTITLE13=1964-The Race is on
TTITLE14=1965-I've Got Five Dollars and It's Saturday Night (With Gene Pitney)
TTITLE15=1967-If my Heart Had Windows
TTITLE16=1967-Walk Through This World With Me
TTITLE17=1968-She's Mine
TTITLE18=1969-I'll Share my World With you
TTITLE19=1970-A Good Year For the Roses
TTITLE20=1971-Take Me (With Tammy Wynette)
TTITLE21=1972-A Picture of Me (Without you)
TTITLE22=1972-Loving you Could Never Be Better
TTITLE23=1972-The Ceremony (With Tammy Wynette)
TTITLE24=1972-We Can Make it
TTITLE25=1973-Once You've Had the Best
TTITLE26=1973-We're Gonna Hold on (With Tammy Wynette)
TTITLE27=1974-The Door
TTITLE28=1974-The Grand Tour
TTITLE29=1975-These Days (I Barely Get By)
EXTD=
EXTT0=
EXTT1=
EXTT2=
EXTT3=
EXTT4=
EXTT5=
EXTT6=
EXTT7=
EXTT8=
EXTT9=
EXTT10=
EXTT11=
EXTT12=
EXTT13=
EXTT14=
EXTT15=
EXTT16=
EXTT17=
EXTT18=
EXTT19=
EXTT20=
EXTT21=
EXTT22=
EXTT23=
EXTT24=
EXTT25=
EXTT26=
EXTT27=
EXTT28=
EXTT29=
PLAYORDER=
